<?xml version="1.0" encoding="UTF-8" standalone="no"?>
<svg
   xmlns:dc="http://purl.org/dc/elements/1.1/"
   xmlns:cc="http://creativecommons.org/ns#"
   xmlns:rdf="http://www.w3.org/1999/02/22-rdf-syntax-ns#"
   xmlns:svg="http://www.w3.org/2000/svg"
   xmlns="http://www.w3.org/2000/svg"
   xmlns:sodipodi="http://sodipodi.sourceforge.net/DTD/sodipodi-0.dtd"
   xmlns:inkscape="http://www.inkscape.org/namespaces/inkscape"
   width="200.99854mm"
   height="296.24518mm"
   viewBox="-100.24216 -54.492161 200.99854 296.24518"
   version="1.1"
   id="svg3435"
   inkscape:version="0.92.2 (5c3e80d, 2017-08-06)"
   sodipodi:docname="MToolv2-0_x9_Outline.svg">
  <metadata
     id="metadata3447">
    <rdf:RDF>
      <cc:Work
         rdf:about="">
        <dc:format>image/svg+xml</dc:format>
        <dc:type
           rdf:resource="http://purl.org/dc/dcmitype/StillImage" />
        <dc:title>svgOutput</dc:title>
      </cc:Work>
    </rdf:RDF>
  </metadata>
  <defs
     id="defs3445" />
  <sodipodi:namedview
     pagecolor="#ffffff"
     bordercolor="#ffff0b"
     borderopacity="1"
     objecttolerance="10"
     gridtolerance="10"
     guidetolerance="10"
     inkscape:pageopacity="0"
     inkscape:pageshadow="2"
     inkscape:window-width="2560"
     inkscape:window-height="1012"
     id="namedview3443"
     showgrid="true"
     inkscape:snap-to-guides="true"
     inkscape:snap-grids="true"
     showguides="false"
     inkscape:document-units="mm"
     inkscape:zoom="1"
     inkscape:cx="387.64819"
     inkscape:cy="877.89079"
     inkscape:window-x="1912"
     inkscape:window-y="1103"
     inkscape:window-maximized="1"
     inkscape:current-layer="svg3435"
     fit-margin-top="0"
     fit-margin-left="0"
     fit-margin-right="0"
     fit-margin-bottom="0"
     borderlayer="false">
    <inkscape:grid
       type="xygrid"
       id="grid3457"
       units="mm"
       visible="true"
       spacingx="0.099999998"
       spacingy="0.10000001"
       empcolor="#3f3f92"
       empopacity="0.25098039"
       snapvisiblegridlinesonly="false"
       originx="-2.2118843"
       originy="126.92228" />
  </sodipodi:namedview>
  <title
     id="title3437">svgOutput</title>
  <desc
     id="desc3439">made with tinkercad</desc>
  <path
     d="m -45.263707,-31.457656 0.146971,-0.235656 0.790799,-1.26798 v -2.281928 h -0.0061 l 0.03136,-0.214035 -0.333833,-2.255991 -0.970148,-2.034389 -1.511361,-1.614972 -1.90387,-1.036652 -0.4441,-0.07504 -1.66715,-0.281682 -2.111254,0.356718 -1.90387,1.036653 -1.51136,1.614971 -0.970145,2.03439 -0.334847,2.255991 0.03136,0.214035 h -0.05665 v 2.199778 l 0.84234,1.35013 0.147026,0.235655 -0.752649,1.206364 -0.236717,0.379422 v 2.606222 2.213832 1.747028 h -1.835078 -2.071801 -4.143602 -8.28719 -8.287197 -8.287198 -8.287194 -0.19929 l -0.042,-0.0036 -0.075,-0.0068 -0.0408,-0.01038 -0.0736,-0.0189 -0.039,-0.01723 -0.0484,-0.02143 -0.0188,-0.0083 -0.002,-7.68e-4 -10e-4,-4.82e-4 -0.0359,-0.02341 -0.0644,-0.04157 -0.032,-0.02926 -0.0573,-0.0529 -0.0274,-0.03414 -0.0495,-0.06122 -9.9e-4,-0.0017 -0.01779,-0.03122 -0.003,-0.0054 -0.0389,-0.06877 -0.0161,-0.04162 -0.029,-0.07483 v -3.2e-5 l -0.01,-0.04354 -0.01,-0.04253 -0.008,-0.03458 -3.3e-4,-0.0015 -0.003,-0.04487 -0.006,-0.08011 v -0.392392 -0.553459 -2.213831 -2.213829 -1.466546 -0.01718 -0.05883 h 0.49764 2.5e-4 l 8.6e-4,-1.32e-4 0.0143,-0.0017 0.0135,-0.0021 0.22322,-0.02639 0.19928,-0.02366 0.01922,-0.0023 0.422865,-0.161064 0.336869,-0.252949 0.136781,-0.201062 0.07869,-0.115662 0.07385,-0.351317 -0.07385,-0.351317 -0.215474,-0.316723 -0.336869,-0.252945 -0.418141,-0.159269 -0.0048,-0.0018 -0.01457,-0.0017 -0.005,-5.32e-4 -0.0114,-0.0013 -9.8e-4,-1.53e-4 -0.20384,-0.0242 -0.2217,-0.0252 -0.0133,-0.0021 h -0.005 -0.493311 v -0.09049 -0.519184 -2.213826 -2.213833 -2.213831 -0.09404 h 0.949051 0.863938 l 0.798163,-0.135122 0.72028,-0.392392 0.570549,-0.610747 0.367217,-0.768574 0.125441,-0.852884 -0.125441,-0.852889 -0.367217,-0.768569 -0.570549,-0.610753 -0.72028,-0.392392 -0.798163,-0.13404 h -0.863938 -0.949051 v -1.029086 -2.213831 -2.213832 -1.106913 -0.553459 -0.01622 l 0.003,-0.04487 0.006,-0.08012 0.01,-0.04357 0.0177,-0.0786 0.005,-0.01335 0.011,-0.02827 0.0285,-0.07366 4.5e-4,-0.0012 0.0219,-0.03838 0.03889,-0.06878 0.0274,-0.03414 0.0262,-0.03234 0.0226,-0.02792 7.6e-4,-9.53e-4 0.032,-0.02926 0.0573,-0.0529 0.0359,-0.02341 0.0644,-0.04157 0.0216,-0.0096 0.0173,-0.0077 0.0697,-0.03082 3.7e-4,-1.66e-4 0.0408,-0.01038 0.0722,-0.01854 10e-4,-3.59e-4 0.042,-0.0036 0.075,-0.0068 h 0.19929 2.071807 2.071796 2.071795 2.071803 2.071796 2.071803 2.071796 2.071803 2.071795 2.071805 2.071795 2.071803 2.071796 2.071795 2.071803 2.071796 2.071803 2.071799 2.0718 2.071795 2.0718 2.071799 2.071799 2.0718 2.071799 2.071799 2.0718 2.0718 2.071799 2.0718 2.071795 2.071799 2.071802 2.071797 2.071799 2.0718 2.071799 2.071799 2.0718 2.071797 2.0718 2.071799 2.071797 2.0717989 2.0717994 2.0717989 2.0717993 2.07179909 2.07179911 2.0717991 2.071799 2.0717991 2.0718011 2.071799 2.071799 2.0718 2.071797 2.0718 2.071799 2.071799 2.0718 2.071799 2.071797 2.071803 2.071799 2.071795 2.0718 2.071799 2.071799 2.0718 2.071799 2.071799 2.0718 2.071799 2.071799 2.0718 2.071795 2.0718 2.071799 2.071803 2.071796 2.071804 2.071795 2.071796 2.071803 2.071795 2.071804 2.071795 2.071803 2.071796 2.071803 2.071796 2.071803 2.071795 2.071794 2.071783 0.19929 l 0.042,0.0036 0.075,0.0068 0.0408,0.01038 0.0736,0.0189 0.039,0.01724 0.0484,0.02141 0.0205,0.0091 0.001,4.82e-4 0.0359,0.02341 0.0644,0.04157 0.032,0.02926 0.0573,0.0529 0.0232,0.02887 0.004,0.0053 0.0495,0.06122 9.9e-4,0.0017 0.0209,0.03662 0.0389,0.06878 0.0161,0.04163 0.0238,0.06147 0.005,0.01296 1.5e-4,3.95e-4 0.01,0.04357 0.0177,0.07861 0.003,0.04487 0.006,0.08012 v 0.0052 0.01099 0.553459 1.106913 2.213832 2.213831 2.213831 2.213832 2.213832 2.213831 2.213832 2.213827 2.213831 2.213834 2.213829 2.213831 0.553459 0.392392 l -0.003,0.04487 -0.006,0.08011 -0.008,0.03607 -0.002,0.0075 -0.0177,0.0786 -0.0161,0.04162 -0.0285,0.07366 -4.5e-4,0.0012 -0.0219,0.03837 -0.0203,0.03581 -0.0186,0.03297 -0.0274,0.03414 -0.0487,0.06026 -7.6e-4,9.5e-4 -0.032,0.02926 -0.0573,0.0529 -0.0359,0.02341 -0.0644,0.04156 -0.003,0.0013 -0.0188,0.0083 -0.0173,0.0077 -0.0696,0.03083 -3.7e-4,1.65e-4 -0.0408,0.01038 -0.0736,0.0189 -0.042,0.0036 -0.075,0.0068 h -0.005 -0.1944 -4.143582 -4.143598 -8.287199 -8.287197 -8.28719 -8.287197 -8.287198 -8.287198 -8.287193 -8.287198 -8.287195 -8.2871991 -8.28719661 -8.28719669 -8.2871946 -8.287195 -8.287199 -8.287193 -2.071799 -1.077379 v -1.747028 -2.213831 -2.689458 l -0.93761,-1.502406 m 140.365395,4.14877 0.895287,-0.957741 0.574601,-1.205283 0.199288,-1.337165 -0.131786,-0.884237 -0.0675,-0.452925 -0.574601,-1.205282 -0.895287,-0.957743 -1.128965,-0.613993 -1.250363,-0.21295 -1.251375,0.21295 -1.127954,0.613993 -0.503788,0.538325 -0.227622,-0.124313 -0.937766,-0.158903 -0.938785,0.158903 -0.845714,0.460492 -0.671717,0.718848 -0.430954,0.903696 -0.01763,0.118902 -0.131076,0.884237 0.148703,1.003144 0.430954,0.903691 0.671717,0.718847 0.845714,0.460496 0.938785,0.158902 0.937766,-0.158902 0.227622,-0.124312 0.503788,0.538323 0.07942,0.04324 0.995922,0.542119 0.0526,0.02864 1.251374,0.21295 1.250364,-0.21295 1.049462,-0.570755 0.0795,-0.04324 z"
     id="path6458"
     inkscape:connector-curvature="0"
     style="fill:none;stroke:#0000ff;stroke-width:0.20914435;stroke-miterlimit:4;stroke-dasharray:none" />
  <path
     style="fill:none;stroke:#0000ff;stroke-width:0.20914435;stroke-miterlimit:4;stroke-dasharray:none"
     inkscape:connector-curvature="0"
     id="path5741"
     d="m -45.263707,1.661493 0.146971,-0.235656 0.790799,-1.26798 v -2.281928 h -0.0061 l 0.03136,-0.214035 -0.333833,-2.255991 -0.970148,-2.034389 -1.511361,-1.614972 -1.90387,-1.036652 -0.4441,-0.07504 -1.66715,-0.281682 -2.111254,0.356718 -1.90387,1.036653 -1.51136,1.614971 -0.970145,2.03439 -0.334847,2.255991 0.03136,0.214035 h -0.05665 v 2.199778 l 0.84234,1.35013 0.147026,0.235655 -0.752649,1.206364 -0.236717,0.379422 v 2.606222 2.213832 1.747028 h -1.835078 -2.071801 -4.143602 -8.28719 -8.287197 -8.287198 -8.287194 -0.19929 l -0.042,-0.0036 -0.075,-0.0068 -0.0408,-0.01038 -0.0736,-0.0189 -0.039,-0.01723 -0.0484,-0.02143 -0.0188,-0.0083 -0.002,-7.68e-4 -10e-4,-4.82e-4 -0.0359,-0.02341 -0.0644,-0.04157 -0.032,-0.02926 -0.0573,-0.0529 -0.0274,-0.03414 -0.0495,-0.06122 -9.9e-4,-0.0017 -0.01779,-0.03122 -0.003,-0.0054 -0.0389,-0.06877 -0.0161,-0.04162 -0.029,-0.07483 v -3.2e-5 l -0.01,-0.04354 -0.01,-0.04253 -0.008,-0.03458 -3.3e-4,-0.0015 -0.003,-0.04487 -0.006,-0.08011 V 8.620873 8.067414 5.853583 3.639754 2.173208 2.156028 2.097198 h 0.49764 2.5e-4 l 8.6e-4,-1.32e-4 0.0143,-0.0017 0.0135,-0.0021 0.22322,-0.02639 0.19928,-0.02366 0.01922,-0.0023 0.422865,-0.161064 0.336869,-0.252949 0.136781,-0.201062 0.07869,-0.115662 0.07385,-0.351317 -0.07385,-0.351317 -0.215474,-0.316723 -0.336869,-0.252945 -0.418141,-0.159269 -0.0048,-0.0018 -0.01457,-0.0017 -0.005,-5.32e-4 -0.0114,-0.0013 -9.8e-4,-1.53e-4 -0.20384,-0.0242 -0.2217,-0.0252 -0.0133,-0.0021 h -0.005 -0.493311 v -0.09049 -0.519184 -2.213826 -2.213833 -2.213831 -0.09404 h 0.949051 0.863938 l 0.798163,-0.135122 0.72028,-0.392392 0.570549,-0.610747 0.367217,-0.768574 0.125441,-0.852884 -0.125441,-0.852889 -0.367217,-0.768569 -0.570549,-0.610753 -0.72028,-0.392392 -0.798163,-0.13404 h -0.863938 -0.949051 v -1.029086 -2.213831 -2.213832 -1.106913 -0.553459 -0.01622 l 0.003,-0.04487 0.006,-0.08012 0.01,-0.04357 0.0177,-0.0786 0.005,-0.01335 0.011,-0.02827 0.0285,-0.07366 4.5e-4,-0.0012 0.0219,-0.03838 0.03889,-0.06878 0.0274,-0.03414 0.0262,-0.03234 0.0226,-0.02792 7.6e-4,-9.53e-4 0.032,-0.02926 0.0573,-0.0529 0.0359,-0.02341 0.0644,-0.04157 0.0216,-0.0096 0.0173,-0.0077 0.0697,-0.03082 3.7e-4,-1.66e-4 0.0408,-0.01038 0.0722,-0.01854 10e-4,-3.59e-4 0.042,-0.0036 0.075,-0.0068 h 0.19929 2.071807 2.071796 2.071795 2.071803 2.071796 2.071803 2.071796 2.071803 2.071795 2.071805 2.071795 2.071803 2.071796 2.071795 2.071803 2.071796 2.071803 2.071799 2.0718 2.071795 2.0718 2.071799 2.071799 2.0718 2.071799 2.071799 2.0718 2.0718 2.071799 2.0718 2.071795 2.071799 2.071802 2.071797 2.071799 2.0718 2.071799 2.071799 2.0718 2.071797 2.0718 2.071799 2.071797 2.0717989 2.0717994 2.0717989 2.0717993 2.07179909 2.07179911 2.0717991 2.071799 2.0717991 2.0718011 2.071799 2.071799 2.0718 2.071797 2.0718 2.071799 2.071799 2.0718 2.071799 2.071797 2.071803 2.071799 2.071795 2.0718 2.071799 2.071799 2.0718 2.071799 2.071799 2.0718 2.071799 2.071799 2.0718 2.071795 2.0718 2.071799 2.071803 2.071796 2.071804 2.071795 2.071796 2.071803 2.071795 2.071804 2.071795 2.071803 2.071796 2.071803 2.071796 2.071803 2.071795 2.071794 2.071783 0.19929 l 0.042,0.0036 0.075,0.0068 0.0408,0.01038 0.0736,0.0189 0.039,0.01724 0.0484,0.02141 0.0205,0.0091 0.001,4.82e-4 0.0359,0.02341 0.0644,0.04157 0.032,0.02926 0.0573,0.0529 0.0232,0.02887 0.004,0.0053 0.0495,0.06122 9.9e-4,0.0017 0.0209,0.03662 0.0389,0.06878 0.0161,0.04163 0.0238,0.06147 0.005,0.01296 1.5e-4,3.95e-4 0.01,0.04357 0.0177,0.07861 0.003,0.04487 0.006,0.08012 v 0.0052 0.01099 0.553459 1.106913 2.213832 2.213831 2.213831 2.213832 2.213832 2.213831 2.213832 2.213827 V 1.425666 3.6395 5.853329 8.06716 8.620619 9.013011 l -0.003,0.04487 -0.006,0.08011 -0.008,0.03607 -0.002,0.0075 -0.0177,0.0786 -0.0161,0.04162 -0.0285,0.07366 -4.5e-4,0.0012 -0.0219,0.03837 -0.0203,0.03581 -0.0186,0.03297 -0.0274,0.03414 -0.0487,0.06026 -7.6e-4,9.5e-4 -0.032,0.02926 -0.0573,0.0529 -0.0359,0.02341 -0.0644,0.04156 -0.003,0.0013 -0.0188,0.0083 -0.0173,0.0077 -0.0696,0.03083 -3.7e-4,1.65e-4 -0.0408,0.01038 -0.0736,0.0189 -0.042,0.0036 -0.075,0.0068 h -0.005 -0.1944 -4.143582 -4.143598 -8.287199 -8.287197 -8.28719 -8.287197 -8.287198 -8.287198 -8.287193 -8.287198 -8.287195 -8.2871991 -8.28719661 -8.28719669 -8.2871946 -8.287195 -8.287199 -8.287193 -2.071799 -1.077379 V 8.067218 5.853387 3.163929 l -0.93761,-1.502406 m 140.365395,4.14877 0.895287,-0.957741 0.574601,-1.205283 0.199288,-1.337165 -0.131786,-0.884237 -0.0675,-0.452925 -0.574601,-1.205282 -0.895287,-0.957743 -1.128965,-0.613993 -1.250363,-0.21295 -1.251375,0.21295 -1.127954,0.613993 -0.503788,0.538325 -0.227622,-0.124313 -0.937766,-0.158903 -0.938785,0.158903 -0.845714,0.460492 -0.671717,0.718848 -0.430954,0.903696 -0.01763,0.118902 -0.131076,0.884237 0.148703,1.003144 0.430954,0.903691 0.671717,0.718847 0.845714,0.460496 0.938785,0.158902 0.937766,-0.158902 0.227622,-0.124312 0.503788,0.538323 0.07942,0.04324 0.995922,0.542119 0.0526,0.02864 1.251374,0.21295 1.250364,-0.21295 1.049462,-0.570755 0.0795,-0.04324 z" />
  <path
     d="m -45.263707,34.780643 0.146971,-0.235656 0.790799,-1.26798 v -2.281928 h -0.0061 l 0.03136,-0.214035 -0.333833,-2.255991 -0.970148,-2.034389 -1.511361,-1.614972 -1.90387,-1.036652 -0.4441,-0.07504 -1.66715,-0.281682 -2.111254,0.356718 -1.90387,1.036653 -1.51136,1.614971 -0.970145,2.03439 -0.334847,2.255991 0.03136,0.214035 h -0.05665 v 2.199778 l 0.84234,1.35013 0.147026,0.235655 -0.752649,1.206364 -0.236717,0.379422 v 2.606222 2.213832 1.747028 h -1.835078 -2.071801 -4.143602 -8.28719 -8.287197 -8.287198 -8.287194 -0.19929 l -0.042,-0.0036 -0.075,-0.0068 -0.0408,-0.01038 -0.0736,-0.0189 -0.039,-0.01723 -0.0484,-0.02143 -0.0188,-0.0083 -0.002,-7.68e-4 -10e-4,-4.82e-4 -0.0359,-0.02341 -0.0644,-0.04157 -0.032,-0.02926 -0.0573,-0.0529 -0.0274,-0.03414 -0.0495,-0.06122 -9.9e-4,-0.0017 -0.01779,-0.03122 -0.003,-0.0054 -0.0389,-0.06877 -0.0161,-0.04162 -0.029,-0.07483 v -3.2e-5 l -0.01,-0.04354 -0.01,-0.04253 -0.008,-0.03458 -3.3e-4,-0.0015 -0.003,-0.04487 -0.006,-0.08011 v -0.392392 -0.553459 -2.213831 -2.213829 -1.466546 -0.01718 -0.05883 h 0.49764 2.5e-4 l 8.6e-4,-1.32e-4 0.0143,-0.0017 0.0135,-0.0021 0.22322,-0.02639 0.19928,-0.02366 0.01922,-0.0023 0.422865,-0.161064 0.336869,-0.252949 0.136781,-0.201062 0.07869,-0.115662 0.07385,-0.351317 -0.07385,-0.351317 -0.215474,-0.316723 -0.336869,-0.252945 -0.418141,-0.159269 -0.0048,-0.0018 -0.01457,-0.0017 -0.005,-5.32e-4 -0.0114,-0.0013 -9.8e-4,-1.53e-4 -0.20384,-0.0242 -0.2217,-0.0252 -0.0133,-0.0021 h -0.005 -0.493311 v -0.09049 -0.519184 -2.213826 -2.213833 -2.213831 -0.09404 h 0.949051 0.863938 l 0.798163,-0.135122 0.72028,-0.392392 0.570549,-0.610747 0.367217,-0.768574 0.125441,-0.852884 -0.125441,-0.852889 -0.367217,-0.768569 -0.570549,-0.610753 -0.72028,-0.392392 -0.798163,-0.13404 h -0.863938 -0.949051 v -1.029086 -2.213831 -2.213832 -1.106913 -0.553459 -0.01622 l 0.003,-0.04487 0.006,-0.08012 0.01,-0.04357 0.0177,-0.0786 0.005,-0.01335 0.011,-0.02827 0.0285,-0.07366 4.5e-4,-0.0012 0.0219,-0.03838 0.03889,-0.06878 0.0274,-0.03414 0.0262,-0.03234 0.0226,-0.02792 7.6e-4,-9.53e-4 0.032,-0.02926 0.0573,-0.0529 0.0359,-0.02341 0.0644,-0.04157 0.0216,-0.0096 0.0173,-0.0077 0.0697,-0.03082 3.7e-4,-1.66e-4 0.0408,-0.01038 0.0722,-0.01854 10e-4,-3.59e-4 0.042,-0.0036 0.075,-0.0068 h 0.19929 2.071807 2.071796 2.071795 2.071803 2.071796 2.071803 2.071796 2.071803 2.071795 2.071805 2.071795 2.071803 2.071796 2.071795 2.071803 2.071796 2.071803 2.071799 2.0718 2.071795 2.0718 2.071799 2.071799 2.0718 2.071799 2.071799 2.0718 2.0718 2.071799 2.0718 2.071795 2.071799 2.071802 2.071797 2.071799 2.0718 2.071799 2.071799 2.0718 2.071797 2.0718 2.071799 2.071797 2.0717989 2.0717994 2.0717989 2.0717993 2.07179909 2.07179911 2.0717991 2.071799 2.0717991 2.0718011 2.071799 2.071799 2.0718 2.071797 2.0718 2.071799 2.071799 2.0718 2.071799 2.071797 2.071803 2.071799 2.071795 2.0718 2.071799 2.071799 2.0718 2.071799 2.071799 2.0718 2.071799 2.071799 2.0718 2.071795 2.0718 2.071799 2.071803 2.071796 2.071804 2.071795 2.071796 2.071803 2.071795 2.071804 2.071795 2.071803 2.071796 2.071803 2.071796 2.071803 2.071795 2.071794 2.071783 0.19929 l 0.042,0.0036 0.075,0.0068 0.0408,0.01038 0.0736,0.0189 0.039,0.01724 0.0484,0.02141 0.0205,0.0091 0.001,4.82e-4 0.0359,0.02341 0.0644,0.04157 0.032,0.02926 0.0573,0.0529 0.0232,0.02887 0.004,0.0053 0.0495,0.06122 9.9e-4,0.0017 0.0209,0.03662 0.0389,0.06878 0.0161,0.04163 0.0238,0.06147 0.005,0.01296 1.5e-4,3.95e-4 0.01,0.04357 0.0177,0.07861 0.003,0.04487 0.006,0.08012 v 0.0052 0.01099 0.553459 1.106913 2.213832 2.213831 2.213831 2.213832 2.213832 2.213831 2.213832 2.213827 2.213831 2.213834 2.213829 2.213831 0.553459 0.392392 l -0.003,0.04487 -0.006,0.08011 -0.008,0.03607 -0.002,0.0075 -0.0177,0.0786 -0.0161,0.04162 -0.0285,0.07366 -4.5e-4,0.0012 -0.0219,0.03837 -0.0203,0.03581 -0.0186,0.03297 -0.0274,0.03414 -0.0487,0.06026 -7.6e-4,9.5e-4 -0.032,0.02926 -0.0573,0.0529 -0.0359,0.02341 -0.0644,0.04156 -0.003,0.0013 -0.0188,0.0083 -0.0173,0.0077 -0.0696,0.03083 -3.7e-4,1.65e-4 -0.0408,0.01038 -0.0736,0.0189 -0.042,0.0036 -0.075,0.0068 h -0.005 -0.1944 -4.143582 -4.143598 -8.287199 -8.287197 -8.28719 -8.287197 -8.287198 -8.287198 -8.287193 -8.287198 -8.287195 -8.2871991 -8.28719661 -8.28719669 -8.2871946 -8.287195 -8.287199 -8.287193 -2.071799 -1.077379 v -1.747028 -2.213831 -2.689458 l -0.93761,-1.502406 m 140.365395,4.14877 0.895287,-0.957741 0.574601,-1.205283 0.199288,-1.337165 -0.131786,-0.884237 -0.0675,-0.452925 -0.574601,-1.205282 -0.895287,-0.957743 -1.128965,-0.613993 -1.250363,-0.21295 -1.251375,0.21295 -1.127954,0.613993 -0.503788,0.538325 -0.227622,-0.124313 -0.937766,-0.158903 -0.938785,0.158903 -0.845714,0.460492 -0.671717,0.718848 -0.430954,0.903696 -0.01763,0.118902 -0.131076,0.884237 0.148703,1.003144 0.430954,0.903691 0.671717,0.718847 0.845714,0.460496 0.938785,0.158902 0.937766,-0.158902 0.227622,-0.124312 0.503788,0.538323 0.07942,0.04324 0.995922,0.542119 0.0526,0.02864 1.251374,0.21295 1.250364,-0.21295 1.049462,-0.570755 0.0795,-0.04324 z"
     id="path5927"
     inkscape:connector-curvature="0"
     style="fill:none;stroke:#0000ff;stroke-width:0.20914435;stroke-miterlimit:4;stroke-dasharray:none" />
  <path
     style="fill:none;stroke:#0000ff;stroke-width:0.20914435;stroke-miterlimit:4;stroke-dasharray:none"
     inkscape:connector-curvature="0"
     id="path6113"
     d="m -45.263707,67.899793 0.146971,-0.235656 0.790799,-1.26798 v -2.281928 h -0.0061 l 0.03136,-0.214035 -0.333833,-2.255991 -0.970148,-2.034389 -1.511361,-1.614972 -1.90387,-1.036652 -0.4441,-0.07504 -1.66715,-0.281682 -2.111254,0.356718 -1.90387,1.036653 -1.51136,1.614971 -0.970145,2.03439 -0.334847,2.255991 0.03136,0.214035 h -0.05665 v 2.199778 l 0.84234,1.35013 0.147026,0.235655 -0.752649,1.206364 -0.236717,0.379422 v 2.606222 2.213832 1.747028 h -1.835078 -2.071801 -4.143602 -8.28719 -8.287197 -8.287198 -8.287194 -0.19929 l -0.042,-0.0036 -0.075,-0.0068 -0.0408,-0.01038 -0.0736,-0.0189 -0.039,-0.01723 -0.0484,-0.02143 -0.0188,-0.0083 -0.002,-7.68e-4 -10e-4,-4.82e-4 -0.0359,-0.02341 -0.0644,-0.04157 -0.032,-0.02926 -0.0573,-0.0529 -0.0274,-0.03414 -0.0495,-0.06122 -9.9e-4,-0.0017 -0.01779,-0.03122 -0.003,-0.0054 -0.0389,-0.06877 -0.0161,-0.04162 -0.029,-0.07483 v -3.2e-5 l -0.01,-0.04354 -0.01,-0.04253 -0.008,-0.03458 -3.3e-4,-0.0015 -0.003,-0.04487 -0.006,-0.08011 v -0.392392 -0.553459 -2.213831 -2.213829 -1.466546 -0.01718 -0.05883 h 0.49764 2.5e-4 l 8.6e-4,-1.32e-4 0.0143,-0.0017 0.0135,-0.0021 0.22322,-0.02639 0.19928,-0.02366 0.01922,-0.0023 0.422865,-0.161064 0.336869,-0.252949 0.136781,-0.201062 0.07869,-0.115662 0.07385,-0.351317 -0.07385,-0.351317 -0.215474,-0.316723 -0.336869,-0.252945 -0.418141,-0.159269 -0.0048,-0.0018 -0.01457,-0.0017 -0.005,-5.32e-4 -0.0114,-0.0013 -9.8e-4,-1.53e-4 -0.20384,-0.0242 -0.2217,-0.0252 -0.0133,-0.0021 h -0.005 -0.493311 v -0.09049 -0.519184 -2.213826 -2.213833 -2.213831 -0.09404 h 0.949051 0.863938 l 0.798163,-0.135122 0.72028,-0.392392 0.570549,-0.610747 0.367217,-0.768574 0.125441,-0.852884 -0.125441,-0.852889 -0.367217,-0.768569 -0.570549,-0.610753 -0.72028,-0.392392 -0.798163,-0.13404 h -0.863938 -0.949051 v -1.029086 -2.213831 -2.213832 -1.106913 -0.553459 -0.01622 l 0.003,-0.04487 0.006,-0.08012 0.01,-0.04357 0.0177,-0.0786 0.005,-0.01335 0.011,-0.02827 0.0285,-0.07366 4.5e-4,-0.0012 0.0219,-0.03838 0.03889,-0.06878 0.0274,-0.03414 0.0262,-0.03234 0.0226,-0.02792 7.6e-4,-9.53e-4 0.032,-0.02926 0.0573,-0.0529 0.0359,-0.02341 0.0644,-0.04157 0.0216,-0.0096 0.0173,-0.0077 0.0697,-0.03082 3.7e-4,-1.66e-4 0.0408,-0.01038 0.0722,-0.01854 10e-4,-3.59e-4 0.042,-0.0036 0.075,-0.0068 h 0.19929 2.071807 2.071796 2.071795 2.071803 2.071796 2.071803 2.071796 2.071803 2.071795 2.071805 2.071795 2.071803 2.071796 2.071795 2.071803 2.071796 2.071803 2.071799 2.0718 2.071795 2.0718 2.071799 2.071799 2.0718 2.071799 2.071799 2.0718 2.0718 2.071799 2.0718 2.071795 2.071799 2.071802 2.071797 2.071799 2.0718 2.071799 2.071799 2.0718 2.071797 2.0718 2.071799 2.071797 2.0717989 2.0717994 2.0717989 2.0717993 2.07179909 2.07179911 2.0717991 2.071799 2.0717991 2.0718011 2.071799 2.071799 2.0718 2.071797 2.0718 2.071799 2.071799 2.0718 2.071799 2.071797 2.071803 2.071799 2.071795 2.0718 2.071799 2.071799 2.0718 2.071799 2.071799 2.0718 2.071799 2.071799 2.0718 2.071795 2.0718 2.071799 2.071803 2.071796 2.071804 2.071795 2.071796 2.071803 2.071795 2.071804 2.071795 2.071803 2.071796 2.071803 2.071796 2.071803 2.071795 2.071794 2.071783 0.19929 l 0.042,0.0036 0.075,0.0068 0.0408,0.01038 0.0736,0.0189 0.039,0.01724 0.0484,0.02141 0.0205,0.0091 0.001,4.82e-4 0.0359,0.02341 0.0644,0.04157 0.032,0.02926 0.0573,0.0529 0.0232,0.02887 0.004,0.0053 0.0495,0.06122 9.9e-4,0.0017 0.0209,0.03662 0.0389,0.06878 0.0161,0.04163 0.0238,0.06147 0.005,0.01296 1.5e-4,3.95e-4 0.01,0.04357 0.0177,0.07861 0.003,0.04487 0.006,0.08012 v 0.0052 0.01099 0.553459 1.106913 2.213832 2.213831 2.213831 2.213832 2.213832 2.213831 2.213832 2.213827 2.213831 2.213834 2.213829 2.213831 0.553459 0.392392 l -0.003,0.04487 -0.006,0.08011 -0.008,0.03607 -0.002,0.0075 -0.0177,0.0786 -0.0161,0.04162 -0.0285,0.07366 -4.5e-4,0.0012 -0.0219,0.03837 -0.0203,0.03581 -0.0186,0.03297 -0.0274,0.03414 -0.0487,0.06026 -7.6e-4,9.5e-4 -0.032,0.02926 -0.0573,0.0529 -0.0359,0.02341 -0.0644,0.04156 -0.003,0.0013 -0.0188,0.0083 -0.0173,0.0077 -0.0696,0.03083 -3.7e-4,1.65e-4 -0.0408,0.01038 -0.0736,0.0189 -0.042,0.0036 -0.075,0.0068 h -0.005 -0.1944 -4.143582 -4.143598 -8.287199 -8.287197 -8.28719 -8.287197 -8.287198 -8.287198 -8.287193 -8.287198 -8.287195 -8.2871991 -8.28719661 -8.28719669 -8.2871946 -8.287195 -8.287199 -8.287193 -2.071799 -1.077379 v -1.747028 -2.213831 -2.689458 l -0.93761,-1.502406 m 140.365395,4.14877 0.895287,-0.957741 0.574601,-1.205283 0.199288,-1.337165 -0.131786,-0.884237 -0.0675,-0.452925 -0.574601,-1.205282 -0.895287,-0.957743 -1.128965,-0.613993 -1.250363,-0.21295 -1.251375,0.21295 -1.127954,0.613993 -0.503788,0.538325 -0.227622,-0.124313 -0.937766,-0.158903 -0.938785,0.158903 -0.845714,0.460492 -0.671717,0.718848 -0.430954,0.903696 -0.01763,0.118902 -0.131076,0.884237 0.148703,1.003144 0.430954,0.903691 0.671717,0.718847 0.845714,0.460496 0.938785,0.158902 0.937766,-0.158902 0.227622,-0.124312 0.503788,0.538323 0.07942,0.04324 0.995922,0.542119 0.0526,0.02864 1.251374,0.21295 1.250364,-0.21295 1.049462,-0.570755 0.0795,-0.04324 z" />
  <path
     d="m -45.263707,101.01894 0.146971,-0.23565 0.790799,-1.267983 v -2.281928 h -0.0061 l 0.03136,-0.214035 -0.333833,-2.255991 -0.970148,-2.034389 -1.511361,-1.614972 -1.90387,-1.036652 -0.4441,-0.07504 -1.66715,-0.281682 -2.111254,0.356718 -1.90387,1.036653 -1.51136,1.614971 -0.970145,2.03439 -0.334847,2.255991 0.03136,0.214035 h -0.05665 v 2.199778 l 0.84234,1.350126 0.147026,0.23566 -0.752649,1.20636 -0.236717,0.37943 v 2.60622 2.21383 1.74703 h -1.835078 -2.071801 -4.143602 -8.28719 -8.287197 -8.287198 -8.287194 -0.19929 l -0.042,-0.004 -0.075,-0.007 -0.0408,-0.0104 -0.0736,-0.0189 -0.039,-0.0172 -0.0484,-0.0214 -0.0188,-0.008 -0.002,-7.7e-4 -10e-4,-4.8e-4 -0.0359,-0.0234 -0.0644,-0.0416 -0.032,-0.0293 -0.0573,-0.0529 -0.0274,-0.0341 -0.0495,-0.0612 -9.9e-4,-0.002 -0.01779,-0.0312 -0.003,-0.005 -0.0389,-0.0688 -0.0161,-0.0416 -0.029,-0.0748 v -3e-5 l -0.01,-0.0435 -0.01,-0.0425 -0.008,-0.0346 -3.3e-4,-0.002 -0.003,-0.0449 -0.006,-0.0801 v -0.3924 -0.55346 -2.21383 -2.21383 -1.46654 -0.0172 -0.0588 h 0.49764 2.5e-4 l 8.6e-4,-1.3e-4 0.0143,-0.002 0.0135,-0.002 0.22322,-0.0264 0.19928,-0.0237 0.01922,-0.002 0.422865,-0.16107 0.336869,-0.25295 0.136781,-0.20106 0.07869,-0.11566 0.07385,-0.35132 -0.07385,-0.351315 -0.215474,-0.316723 -0.336869,-0.252945 -0.418141,-0.159269 -0.0048,-0.0018 -0.01457,-0.0017 -0.005,-5.32e-4 -0.0114,-0.0013 -9.8e-4,-1.53e-4 -0.20384,-0.0242 -0.2217,-0.0252 -0.0133,-0.0021 h -0.005 -0.493311 v -0.09049 -0.519184 -2.213826 -2.213833 -2.213831 -0.09404 h 0.949051 0.863938 l 0.798163,-0.135122 0.72028,-0.392392 0.570549,-0.610747 0.367217,-0.768574 0.125441,-0.852884 -0.125441,-0.852889 -0.367217,-0.768569 -0.570549,-0.610753 -0.72028,-0.392392 -0.798163,-0.13404 h -0.863938 -0.949051 v -1.029086 -2.213831 -2.213832 -1.106913 -0.553459 -0.01622 l 0.003,-0.04487 0.006,-0.08012 0.01,-0.04357 0.0177,-0.0786 0.005,-0.01335 0.011,-0.02827 0.0285,-0.07366 4.5e-4,-0.0012 0.0219,-0.03838 0.03889,-0.06878 0.0274,-0.03414 0.0262,-0.03234 0.0226,-0.02792 7.6e-4,-9.53e-4 0.032,-0.02926 0.0573,-0.0529 0.0359,-0.02341 0.0644,-0.04157 0.0216,-0.0096 0.0173,-0.0077 0.0697,-0.03082 3.7e-4,-1.66e-4 0.0408,-0.01038 0.0722,-0.01854 10e-4,-3.59e-4 0.042,-0.0036 0.075,-0.0068 h 0.19929 2.071807 2.071796 2.071795 2.071803 2.071796 2.071803 2.071796 2.071803 2.071795 2.071805 2.071795 2.071803 2.071796 2.071795 2.071803 2.071796 2.071803 2.071799 2.0718 2.071795 2.0718 2.071799 2.071799 2.0718 2.071799 2.071799 2.0718 2.0718 2.071799 2.0718 2.071795 2.071799 2.071802 2.071797 2.071799 2.0718 2.071799 2.071799 2.0718 2.071797 2.0718 2.071799 2.071797 2.0717989 2.0717994 2.0717989 2.0717993 2.07179909 2.07179911 2.0717991 2.071799 2.0717991 2.0718011 2.071799 2.071799 2.0718 2.071797 2.0718 2.071799 2.071799 2.0718 2.071799 2.071797 2.071803 2.071799 2.071795 2.0718 2.071799 2.071799 2.0718 2.071799 2.071799 2.0718 2.071799 2.071799 2.0718 2.071795 2.0718 2.071799 2.071803 2.071796 2.071804 2.071795 2.071796 2.071803 2.071795 2.071804 2.071795 2.071803 2.071796 2.071803 2.071796 2.071803 2.071795 2.071794 2.071783 0.19929 l 0.042,0.0036 0.075,0.0068 0.0408,0.01038 0.0736,0.0189 0.039,0.01724 0.0484,0.02141 0.0205,0.0091 0.001,4.82e-4 0.0359,0.02341 0.0644,0.04157 0.032,0.02926 0.0573,0.0529 0.0232,0.02887 0.004,0.0053 0.0495,0.06122 9.9e-4,0.0017 0.0209,0.03662 0.0389,0.06878 0.0161,0.04163 0.0238,0.06147 0.005,0.01296 1.5e-4,3.95e-4 0.01,0.04357 0.0177,0.07861 0.003,0.04487 0.006,0.08012 v 0.0052 0.01099 0.553459 1.106913 2.213832 2.213831 2.213831 2.213832 2.213832 2.213831 2.213832 2.213827 2.213835 2.21383 2.21383 2.21383 0.55346 0.39239 l -0.003,0.0449 -0.006,0.0801 -0.008,0.0361 -0.002,0.008 -0.0177,0.0786 -0.0161,0.0416 -0.0285,0.0737 -4.5e-4,0.001 -0.0219,0.0384 -0.0203,0.0358 -0.0186,0.033 -0.0274,0.0341 -0.0487,0.0603 -7.6e-4,9.5e-4 -0.032,0.0293 -0.0573,0.0529 -0.0359,0.0234 -0.0644,0.0416 -0.003,0.001 -0.0188,0.008 -0.0173,0.008 -0.0696,0.0308 -3.7e-4,1.7e-4 -0.0408,0.0104 -0.0736,0.0189 -0.042,0.004 -0.075,0.007 h -0.005 -0.1944 -4.143582 -4.143598 -8.287199 -8.287197 -8.28719 -8.287197 -8.287198 -8.287198 -8.287193 -8.287198 -8.287195 -8.2871991 -8.28719661 -8.28719669 -8.2871946 -8.287195 -8.287199 -8.287193 -2.071799 -1.077379 v -1.74703 -2.21383 -2.68946 l -0.93761,-1.50241 m 140.365395,4.14877 0.895287,-0.95774 0.574601,-1.20528 0.199288,-1.33717 -0.131786,-0.88423 -0.0675,-0.45293 -0.574601,-1.20528 -0.895287,-0.957743 -1.128965,-0.613993 -1.250363,-0.21295 -1.251375,0.21295 -1.127954,0.613993 -0.503788,0.538325 -0.227622,-0.124313 -0.937766,-0.158903 -0.938785,0.158903 -0.845714,0.460492 -0.671717,0.718848 -0.430954,0.903691 -0.01763,0.11891 -0.131076,0.88423 0.148703,1.00315 0.430954,0.90369 0.671717,0.71885 0.845714,0.46049 0.938785,0.1589 0.937766,-0.1589 0.227622,-0.12431 0.503788,0.53832 0.07942,0.0432 0.995922,0.54212 0.0526,0.0286 1.251374,0.21295 1.250364,-0.21295 1.049462,-0.57075 0.0795,-0.0432 z"
     id="path6299"
     inkscape:connector-curvature="0"
     style="fill:none;stroke:#0000ff;stroke-width:0.20914435;stroke-miterlimit:4;stroke-dasharray:none" />
  <path
     style="fill:none;stroke:#0000ff;stroke-width:0.20914435;stroke-miterlimit:4;stroke-dasharray:none"
     inkscape:connector-curvature="0"
     id="path6485"
     d="m -45.263707,134.1381 0.146971,-0.23565 0.790799,-1.26798 v -2.28193 h -0.0061 l 0.03136,-0.21404 -0.333833,-2.25599 -0.970148,-2.03439 -1.511361,-1.61497 -1.90387,-1.03665 -0.4441,-0.075 -1.66715,-0.28168 -2.111254,0.35672 -1.90387,1.03665 -1.51136,1.61497 -0.970145,2.03439 -0.334847,2.25599 0.03136,0.21404 h -0.05665 v 2.19977 l 0.84234,1.35013 0.147026,0.23566 -0.752649,1.20636 -0.236717,0.37942 v 2.60623 2.21383 1.74703 h -1.835078 -2.071801 -4.143602 -8.28719 -8.287197 -8.287198 -8.287194 -0.19929 l -0.042,-0.004 -0.075,-0.007 -0.0408,-0.0104 -0.0736,-0.0189 -0.039,-0.0172 -0.0484,-0.0214 -0.0188,-0.008 -0.002,-7.7e-4 -10e-4,-4.8e-4 -0.0359,-0.0234 -0.0644,-0.0416 -0.032,-0.0293 -0.0573,-0.0529 -0.0274,-0.0341 -0.0495,-0.0612 -9.9e-4,-0.002 -0.01779,-0.0312 -0.003,-0.005 -0.0389,-0.0688 -0.0161,-0.0416 -0.029,-0.0748 v -4e-5 l -0.01,-0.0435 -0.01,-0.0425 -0.008,-0.0346 -3.3e-4,-0.002 -0.003,-0.0449 -0.006,-0.0801 v -0.39239 -0.55346 -2.21383 -2.21383 -1.46654 -0.0172 -0.0588 h 0.49764 2.5e-4 l 8.6e-4,-1.3e-4 0.0143,-0.002 0.0135,-0.002 0.22322,-0.0264 0.19928,-0.0237 0.01922,-0.002 0.422865,-0.16107 0.336869,-0.25295 0.136781,-0.20106 0.07869,-0.11566 0.07385,-0.35132 -0.07385,-0.35132 -0.215474,-0.31672 -0.336869,-0.25294 -0.418141,-0.15927 -0.0048,-0.002 -0.01457,-0.002 -0.005,-5.3e-4 -0.0114,-0.001 -9.8e-4,-1.6e-4 -0.20384,-0.0242 -0.2217,-0.0252 -0.0133,-0.002 h -0.005 -0.493311 v -0.0905 -0.51918 -2.21383 -2.21383 -2.21383 -0.094 h 0.949051 0.863938 l 0.798163,-0.13512 0.72028,-0.3924 0.570549,-0.61074 0.367217,-0.76858 0.125441,-0.85288 -0.125441,-0.85289 -0.367217,-0.76857 -0.570549,-0.61075 -0.72028,-0.39239 -0.798163,-0.13404 h -0.863938 -0.949051 v -1.02909 -2.21383 -2.21383 -1.10692 -0.55345 -0.0162 l 0.003,-0.0449 0.006,-0.0801 0.01,-0.0436 0.0177,-0.0786 0.005,-0.0134 0.011,-0.0283 0.0285,-0.0737 4.5e-4,-0.001 0.0219,-0.0384 0.03889,-0.0688 0.0274,-0.0341 0.0262,-0.0323 0.0226,-0.0279 7.6e-4,-9.6e-4 0.032,-0.0293 0.0573,-0.0529 0.0359,-0.0234 0.0644,-0.0416 0.0216,-0.01 0.0173,-0.008 0.0697,-0.0308 3.7e-4,-1.6e-4 0.0408,-0.0104 0.0722,-0.0185 10e-4,-3.6e-4 0.042,-0.004 0.075,-0.007 h 0.19929 2.071807 2.071796 2.071795 2.071803 2.071796 2.071803 2.071796 2.071803 2.071795 2.071805 2.071795 2.071803 2.071796 2.071795 2.071803 2.071796 2.071803 2.071799 2.0718 2.071795 2.0718 2.071799 2.071799 2.0718 2.071799 2.071799 2.0718 2.0718 2.071799 2.0718 2.071795 2.071799 2.071802 2.071797 2.071799 2.0718 2.071799 2.071799 2.0718 2.071797 2.0718 2.071799 2.071797 2.0717989 2.0717994 2.0717989 2.0717993 2.07179909 2.07179911 2.0717991 2.071799 2.0717991 2.0718011 2.071799 2.071799 2.0718 2.071797 2.0718 2.071799 2.071799 2.0718 2.071799 2.071797 2.071803 2.071799 2.071795 2.0718 2.071799 2.071799 2.0718 2.071799 2.071799 2.0718 2.071799 2.071799 2.0718 2.071795 2.0718 2.071799 2.071803 2.071796 2.071804 2.071795 2.071796 2.071803 2.071795 2.071804 2.071795 2.071803 2.071796 2.071803 2.071796 2.071803 2.071795 2.071794 2.071783 0.19929 l 0.042,0.004 0.075,0.007 0.0408,0.0104 0.0736,0.0189 0.039,0.0172 0.0484,0.0214 0.0205,0.009 0.001,4.8e-4 0.0359,0.0234 0.0644,0.0416 0.032,0.0293 0.0573,0.0529 0.0232,0.0289 0.004,0.005 0.0495,0.0612 9.9e-4,0.002 0.0209,0.0366 0.0389,0.0688 0.0161,0.0416 0.0238,0.0615 0.005,0.013 1.5e-4,3.9e-4 0.01,0.0436 0.0177,0.0786 0.003,0.0449 0.006,0.0801 v 0.005 0.011 0.55346 1.10692 2.21383 2.21383 2.21383 2.21383 2.21383 2.21384 2.21383 2.21382 2.21384 2.21383 2.21383 2.21383 0.55346 0.39239 l -0.003,0.0449 -0.006,0.0801 -0.008,0.0361 -0.002,0.008 -0.0177,0.0786 -0.0161,0.0416 -0.0285,0.0737 -4.5e-4,0.001 -0.0219,0.0384 -0.0203,0.0358 -0.0186,0.033 -0.0274,0.0341 -0.0487,0.0603 -7.6e-4,9.5e-4 -0.032,0.0293 -0.0573,0.0529 -0.0359,0.0234 -0.0644,0.0416 -0.003,0.001 -0.0188,0.008 -0.0173,0.008 -0.0696,0.0308 -3.7e-4,1.7e-4 -0.0408,0.0104 -0.0736,0.0189 -0.042,0.004 -0.075,0.007 h -0.005 -0.1944 -4.143582 -4.143598 -8.287199 -8.287197 -8.28719 -8.287197 -8.287198 -8.287198 -8.287193 -8.287198 -8.287195 -8.2871991 -8.28719661 -8.28719669 -8.2871946 -8.287195 -8.287199 -8.287193 -2.071799 -1.077379 v -1.74703 -2.21383 -2.68946 l -0.93761,-1.50241 m 140.365395,4.14877 0.895287,-0.95774 0.574601,-1.20528 0.199288,-1.33717 -0.131786,-0.88423 -0.0675,-0.45293 -0.574601,-1.20528 -0.895287,-0.95774 -1.128965,-0.614 -1.250363,-0.21295 -1.251375,0.21295 -1.127954,0.614 -0.503788,0.53832 -0.227622,-0.12431 -0.937766,-0.1589 -0.938785,0.1589 -0.845714,0.46049 -0.671717,0.71885 -0.430954,0.90369 -0.01763,0.11891 -0.131076,0.88423 0.148703,1.00315 0.430954,0.90369 0.671717,0.71885 0.845714,0.46049 0.938785,0.1589 0.937766,-0.1589 0.227622,-0.12431 0.503788,0.53832 0.07942,0.0432 0.995922,0.54212 0.0526,0.0286 1.251374,0.21295 1.250364,-0.21295 1.049462,-0.57075 0.0795,-0.0432 z" />
  <path
     d="m -45.263707,167.25726 0.146971,-0.23565 0.790799,-1.26798 v -2.28193 h -0.0061 l 0.03136,-0.21404 -0.333833,-2.25599 -0.970148,-2.03439 -1.511361,-1.61497 -1.90387,-1.03665 -0.4441,-0.075 -1.66715,-0.28168 -2.111254,0.35672 -1.90387,1.03665 -1.51136,1.61497 -0.970145,2.03439 -0.334847,2.25599 0.03136,0.21404 h -0.05665 v 2.19977 l 0.84234,1.35013 0.147026,0.23566 -0.752649,1.20636 -0.236717,0.37942 v 2.60623 2.21383 1.74703 h -1.835078 -2.071801 -4.143602 -8.28719 -8.287197 -8.287198 -8.287194 -0.19929 l -0.042,-0.004 -0.075,-0.007 -0.0408,-0.0104 -0.0736,-0.0189 -0.039,-0.0172 -0.0484,-0.0214 -0.0188,-0.008 -0.002,-7.7e-4 -10e-4,-4.8e-4 -0.0359,-0.0234 -0.0644,-0.0416 -0.032,-0.0293 -0.0573,-0.0529 -0.0274,-0.0341 -0.0495,-0.0612 -9.9e-4,-0.002 -0.01779,-0.0312 -0.003,-0.005 -0.0389,-0.0688 -0.0161,-0.0416 -0.029,-0.0748 v -4e-5 l -0.01,-0.0435 -0.01,-0.0425 -0.008,-0.0346 -3.3e-4,-0.001 -0.003,-0.0449 -0.006,-0.0801 v -0.39239 -0.55346 -2.21383 -2.21383 -1.46654 -0.0172 -0.0588 h 0.49764 2.5e-4 l 8.6e-4,-1.3e-4 0.0143,-0.002 0.0135,-0.002 0.22322,-0.0264 0.19928,-0.0237 0.01922,-0.002 0.422865,-0.16107 0.336869,-0.25295 0.136781,-0.20106 0.07869,-0.11566 0.07385,-0.35132 -0.07385,-0.35132 -0.215474,-0.31672 -0.336869,-0.25294 -0.418141,-0.15927 -0.0048,-0.002 -0.01457,-0.002 -0.005,-5.3e-4 -0.0114,-0.001 -9.8e-4,-1.6e-4 -0.20384,-0.0242 -0.2217,-0.0252 -0.0133,-0.002 h -0.005 -0.493311 v -0.0905 -0.51918 -2.21383 -2.21383 -2.21383 -0.094 h 0.949051 0.863938 l 0.798163,-0.13512 0.72028,-0.3924 0.570549,-0.61074 0.367217,-0.76858 0.125441,-0.85288 -0.125441,-0.85289 -0.367217,-0.76857 -0.570549,-0.61075 -0.72028,-0.39239 -0.798163,-0.13404 h -0.863938 -0.949051 v -1.02909 -2.21383 -2.21383 -1.10692 -0.55345 -0.0162 l 0.003,-0.0449 0.006,-0.0801 0.01,-0.0436 0.0177,-0.0786 0.005,-0.0134 0.011,-0.0283 0.0285,-0.0737 4.5e-4,-0.001 0.0219,-0.0384 0.03889,-0.0688 0.0274,-0.0341 0.0262,-0.0323 0.0226,-0.0279 7.6e-4,-9.6e-4 0.032,-0.0293 0.0573,-0.0529 0.0359,-0.0234 0.0644,-0.0416 0.0216,-0.01 0.0173,-0.008 0.0697,-0.0308 3.7e-4,-1.6e-4 0.0408,-0.0104 0.0722,-0.0185 10e-4,-3.6e-4 0.042,-0.004 0.075,-0.007 h 0.19929 2.071807 2.071796 2.071795 2.071803 2.071796 2.071803 2.071796 2.071803 2.071795 2.071805 2.071795 2.071803 2.071796 2.071795 2.071803 2.071796 2.071803 2.071799 2.0718 2.071795 2.0718 2.071799 2.071799 2.0718 2.071799 2.071799 2.0718 2.0718 2.071799 2.0718 2.071795 2.071799 2.071802 2.071797 2.071799 2.0718 2.071799 2.071799 2.0718 2.071797 2.0718 2.071799 2.071797 2.0717989 2.0717994 2.0717989 2.0717993 2.07179909 2.07179911 2.0717991 2.071799 2.0717991 2.0718011 2.071799 2.071799 2.0718 2.071797 2.0718 2.071799 2.071799 2.0718 2.071799 2.071797 2.071803 2.071799 2.071795 2.0718 2.071799 2.071799 2.0718 2.071799 2.071799 2.0718 2.071799 2.071799 2.0718 2.071795 2.0718 2.071799 2.071803 2.071796 2.071804 2.071795 2.071796 2.071803 2.071795 2.071804 2.071795 2.071803 2.071796 2.071803 2.071796 2.071803 2.071795 2.071794 2.071783 0.19929 l 0.042,0.004 0.075,0.007 0.0408,0.0104 0.0736,0.0189 0.039,0.0172 0.0484,0.0214 0.0205,0.009 0.001,4.8e-4 0.0359,0.0234 0.0644,0.0416 0.032,0.0293 0.0573,0.0529 0.0232,0.0289 0.004,0.005 0.0495,0.0612 9.9e-4,0.002 0.0209,0.0366 0.0389,0.0688 0.0161,0.0416 0.0238,0.0615 0.005,0.013 1.5e-4,3.9e-4 0.01,0.0436 0.0177,0.0786 0.003,0.0449 0.006,0.0801 v 0.005 0.011 0.55346 1.10692 2.21383 2.21383 2.21383 2.21383 2.21383 2.21384 2.21383 2.21382 2.21384 2.21383 2.21383 2.21383 0.55346 0.39239 l -0.003,0.0449 -0.006,0.0801 -0.008,0.0361 -0.002,0.007 -0.0177,0.0786 -0.0161,0.0416 -0.0285,0.0737 -4.5e-4,0.001 -0.0219,0.0384 -0.0203,0.0358 -0.0186,0.033 -0.0274,0.0341 -0.0487,0.0603 -7.6e-4,9.5e-4 -0.032,0.0293 -0.0573,0.0529 -0.0359,0.0234 -0.0644,0.0416 -0.003,0.001 -0.0188,0.008 -0.0173,0.008 -0.0696,0.0308 -3.7e-4,1.7e-4 -0.0408,0.0104 -0.0736,0.0189 -0.042,0.004 -0.075,0.007 h -0.005 -0.1944 -4.143582 -4.143598 -8.287199 -8.287197 -8.28719 -8.287197 -8.287198 -8.287198 -8.287193 -8.287198 -8.287195 -8.2871991 -8.28719661 -8.28719669 -8.2871946 -8.287195 -8.287199 -8.287193 -2.071799 -1.077379 v -1.74703 -2.21383 -2.68946 l -0.93761,-1.50241 m 140.365395,4.14877 0.895287,-0.95774 0.574601,-1.20528 0.199288,-1.33717 -0.131786,-0.88423 -0.0675,-0.45293 -0.574601,-1.20528 -0.895287,-0.95774 -1.128965,-0.614 -1.250363,-0.21295 -1.251375,0.21295 -1.127954,0.614 -0.503788,0.53832 -0.227622,-0.12431 -0.937766,-0.1589 -0.938785,0.1589 -0.845714,0.46049 -0.671717,0.71885 -0.430954,0.90369 -0.01763,0.11891 -0.131076,0.88423 0.148703,1.00315 0.430954,0.90369 0.671717,0.71885 0.845714,0.46049 0.938785,0.1589 0.937766,-0.1589 0.227622,-0.12431 0.503788,0.53832 0.07942,0.0432 0.995922,0.54212 0.0526,0.0286 1.251374,0.21295 1.250364,-0.21295 1.049462,-0.57075 0.0795,-0.0432 z"
     id="path6671"
     inkscape:connector-curvature="0"
     style="fill:none;stroke:#0000ff;stroke-width:0.20914435;stroke-miterlimit:4;stroke-dasharray:none" />
  <path
     style="fill:none;stroke:#0000ff;stroke-width:0.20914435;stroke-miterlimit:4;stroke-dasharray:none"
     inkscape:connector-curvature="0"
     id="path6857"
     d="m -45.263707,200.37642 0.146971,-0.23565 0.790799,-1.26798 v -2.28193 h -0.0061 l 0.03136,-0.21404 -0.333833,-2.25599 -0.970148,-2.03439 -1.511361,-1.61497 -1.90387,-1.03665 -0.4441,-0.075 -1.66715,-0.28168 -2.111254,0.35672 -1.90387,1.03665 -1.51136,1.61497 -0.970145,2.03439 -0.334847,2.25599 0.03136,0.21404 h -0.05665 v 2.19977 l 0.84234,1.35013 0.147026,0.23566 -0.752649,1.20636 -0.236717,0.37942 v 2.60623 2.21383 1.74703 h -1.835078 -2.071801 -4.143602 -8.28719 -8.287197 -8.287198 -8.287194 -0.19929 l -0.042,-0.004 -0.075,-0.007 -0.0408,-0.0104 -0.0736,-0.0189 -0.039,-0.0172 -0.0484,-0.0214 -0.0188,-0.008 -0.002,-7.7e-4 -10e-4,-4.8e-4 -0.0359,-0.0234 -0.0644,-0.0416 -0.032,-0.0293 -0.0573,-0.0529 -0.0274,-0.0341 -0.0495,-0.0612 -9.9e-4,-0.002 -0.01779,-0.0312 -0.003,-0.005 -0.0389,-0.0688 -0.0161,-0.0416 -0.029,-0.0748 v -4e-5 l -0.01,-0.0435 -0.01,-0.0425 -0.008,-0.0346 -3.3e-4,-0.001 -0.003,-0.0449 -0.006,-0.0801 v -0.39239 -0.55346 -2.21383 -2.21383 -1.46654 -0.0172 -0.0588 h 0.49764 2.5e-4 l 8.6e-4,-1.3e-4 0.0143,-0.002 0.0135,-0.002 0.22322,-0.0264 0.19928,-0.0237 0.01922,-0.002 0.422865,-0.16107 0.336869,-0.25295 0.136781,-0.20106 0.07869,-0.11566 0.07385,-0.35132 -0.07385,-0.35132 -0.215474,-0.31672 -0.336869,-0.25294 -0.418141,-0.15927 -0.0048,-0.002 -0.01457,-0.002 -0.005,-5.3e-4 -0.0114,-0.001 -9.8e-4,-1.6e-4 -0.20384,-0.0242 -0.2217,-0.0252 -0.0133,-0.002 h -0.005 -0.493311 v -0.0905 -0.51918 -2.21383 -2.21383 -2.21383 -0.094 h 0.949051 0.863938 l 0.798163,-0.13512 0.72028,-0.3924 0.570549,-0.61074 0.367217,-0.76858 0.125441,-0.85288 -0.125441,-0.85289 -0.367217,-0.76857 -0.570549,-0.61075 -0.72028,-0.39239 -0.798163,-0.13404 h -0.863938 -0.949051 v -1.02909 -2.21383 -2.21383 -1.10692 -0.55345 -0.0162 l 0.003,-0.0449 0.006,-0.0801 0.01,-0.0436 0.0177,-0.0786 0.005,-0.0133 0.011,-0.0283 0.0285,-0.0737 4.5e-4,-0.001 0.0219,-0.0384 0.03889,-0.0688 0.0274,-0.0341 0.0262,-0.0323 0.0226,-0.0279 7.6e-4,-9.6e-4 0.032,-0.0293 0.0573,-0.0529 0.0359,-0.0234 0.0644,-0.0416 0.0216,-0.01 0.0173,-0.008 0.0697,-0.0308 3.7e-4,-1.6e-4 0.0408,-0.0104 0.0722,-0.0185 10e-4,-3.6e-4 0.042,-0.004 0.075,-0.007 h 0.19929 2.071807 2.071796 2.071795 2.071803 2.071796 2.071803 2.071796 2.071803 2.071795 2.071805 2.071795 2.071803 2.071796 2.071795 2.071803 2.071796 2.071803 2.071799 2.0718 2.071795 2.0718 2.071799 2.071799 2.0718 2.071799 2.071799 2.0718 2.0718 2.071799 2.0718 2.071795 2.071799 2.071802 2.071797 2.071799 2.0718 2.071799 2.071799 2.0718 2.071797 2.0718 2.071799 2.071797 2.0717989 2.0717994 2.0717989 2.0717993 2.07179909 2.07179911 2.0717991 2.071799 2.0717991 2.0718011 2.071799 2.071799 2.0718 2.071797 2.0718 2.071799 2.071799 2.0718 2.071799 2.071797 2.071803 2.071799 2.071795 2.0718 2.071799 2.071799 2.0718 2.071799 2.071799 2.0718 2.071799 2.071799 2.0718 2.071795 2.0718 2.071799 2.071803 2.071796 2.071804 2.071795 2.071796 2.071803 2.071795 2.071804 2.071795 2.071803 2.071796 2.071803 2.071796 2.071803 2.071795 2.071794 2.071783 0.19929 l 0.042,0.004 0.075,0.007 0.0408,0.0104 0.0736,0.0189 0.039,0.0172 0.0484,0.0214 0.0205,0.009 0.001,4.8e-4 0.0359,0.0234 0.0644,0.0416 0.032,0.0293 0.0573,0.0529 0.0232,0.0289 0.004,0.005 0.0495,0.0612 9.9e-4,0.002 0.0209,0.0366 0.0389,0.0688 0.0161,0.0416 0.0238,0.0615 0.005,0.013 1.5e-4,3.9e-4 0.01,0.0436 0.0177,0.0786 0.003,0.0449 0.006,0.0801 v 0.005 0.011 0.55346 1.10692 2.21383 2.21383 2.21383 2.21383 2.21383 2.21384 2.21383 2.21382 2.21384 2.21383 2.21383 2.21383 0.55346 0.39239 l -0.003,0.0449 -0.006,0.0801 -0.008,0.0361 -0.002,0.007 -0.0177,0.0786 -0.0161,0.0416 -0.0285,0.0737 -4.5e-4,0.001 -0.0219,0.0384 -0.0203,0.0358 -0.0186,0.033 -0.0274,0.0341 -0.0487,0.0603 -7.6e-4,9.5e-4 -0.032,0.0293 -0.0573,0.0529 -0.0359,0.0234 -0.0644,0.0416 -0.003,0.001 -0.0188,0.008 -0.0173,0.008 -0.0696,0.0308 -3.7e-4,1.7e-4 -0.0408,0.0104 -0.0736,0.0189 -0.042,0.004 -0.075,0.007 h -0.005 -0.1944 -4.143582 -4.143598 -8.287199 -8.287197 -8.28719 -8.287197 -8.287198 -8.287198 -8.287193 -8.287198 -8.287195 -8.2871991 -8.28719661 -8.28719669 -8.2871946 -8.287195 -8.287199 -8.287193 -2.071799 -1.077379 v -1.74703 -2.21383 -2.68946 l -0.93761,-1.50241 m 140.365395,4.14877 0.895287,-0.95774 0.574601,-1.20528 0.199288,-1.33717 -0.131786,-0.88423 -0.0675,-0.45293 -0.574601,-1.20528 -0.895287,-0.95774 -1.128965,-0.614 -1.250363,-0.21295 -1.251375,0.21295 -1.127954,0.614 -0.503788,0.53832 -0.227622,-0.12431 -0.937766,-0.1589 -0.938785,0.1589 -0.845714,0.46049 -0.671717,0.71885 -0.430954,0.90369 -0.01763,0.11891 -0.131076,0.88423 0.148703,1.00315 0.430954,0.90369 0.671717,0.71885 0.845714,0.46049 0.938785,0.1589 0.937766,-0.1589 0.227622,-0.12431 0.503788,0.53832 0.07942,0.0432 0.995922,0.54212 0.0526,0.0286 1.251374,0.21295 1.250364,-0.21295 1.049462,-0.57075 0.0795,-0.0432 z" />
  <path
     d="m -45.263707,233.49558 0.146971,-0.23565 0.790799,-1.26798 v -2.28193 h -0.0061 l 0.03136,-0.21404 -0.333833,-2.25599 -0.970148,-2.03439 -1.511361,-1.61497 -1.90387,-1.03665 -0.4441,-0.075 -1.66715,-0.28168 -2.111254,0.35672 -1.90387,1.03665 -1.51136,1.61497 -0.970145,2.03439 -0.334847,2.25599 0.03136,0.21404 h -0.05665 v 2.19977 l 0.84234,1.35013 0.147026,0.23566 -0.752649,1.20636 -0.236717,0.37942 v 2.60623 2.21383 1.74703 h -1.835078 -2.071801 -4.143602 -8.28719 -8.287197 -8.287198 -8.287194 -0.19929 l -0.042,-0.004 -0.075,-0.007 -0.0408,-0.0104 -0.0736,-0.0189 -0.039,-0.0172 -0.0484,-0.0214 -0.0188,-0.008 -0.002,-7.7e-4 -10e-4,-4.8e-4 -0.0359,-0.0234 -0.0644,-0.0416 -0.032,-0.0293 -0.0573,-0.0529 -0.0274,-0.0341 -0.0495,-0.0612 -9.9e-4,-0.002 -0.01779,-0.0312 -0.003,-0.005 -0.0389,-0.0688 -0.0161,-0.0416 -0.029,-0.0748 v -4e-5 l -0.01,-0.0435 -0.01,-0.0425 -0.008,-0.0346 -3.3e-4,-0.001 -0.003,-0.0449 -0.006,-0.0801 v -0.39239 -0.55346 -2.21383 -2.21383 -1.46654 -0.0172 -0.0588 h 0.49764 2.5e-4 l 8.6e-4,-1.3e-4 0.0143,-0.002 0.0135,-0.002 0.22322,-0.0264 0.19928,-0.0237 0.01922,-0.002 0.422865,-0.16107 0.336869,-0.25295 0.136781,-0.20106 0.07869,-0.11566 0.07385,-0.35132 -0.07385,-0.35132 -0.215474,-0.31672 -0.336869,-0.25294 -0.418141,-0.15927 -0.0048,-0.002 -0.01457,-0.002 -0.005,-5.3e-4 -0.0114,-0.001 -9.8e-4,-1.6e-4 -0.20384,-0.0242 -0.2217,-0.0252 -0.0133,-0.002 h -0.005 -0.493311 v -0.0905 -0.51918 -2.21383 -2.21383 -2.21383 -0.094 h 0.949051 0.863938 l 0.798163,-0.13512 0.72028,-0.3924 0.570549,-0.61074 0.367217,-0.76858 0.125441,-0.85288 -0.125441,-0.85289 -0.367217,-0.76857 -0.570549,-0.61075 -0.72028,-0.39239 -0.798163,-0.13404 h -0.863938 -0.949051 v -1.02909 -2.21383 -2.21383 -1.10692 -0.55345 -0.0162 l 0.003,-0.0449 0.006,-0.0801 0.01,-0.0436 0.0177,-0.0786 0.005,-0.0134 0.011,-0.0283 0.0285,-0.0737 4.5e-4,-0.001 0.0219,-0.0384 0.03889,-0.0688 0.0274,-0.0341 0.0262,-0.0323 0.0226,-0.0279 7.6e-4,-9.6e-4 0.032,-0.0293 0.0573,-0.0529 0.0359,-0.0234 0.0644,-0.0416 0.0216,-0.01 0.0173,-0.008 0.0697,-0.0308 3.7e-4,-1.6e-4 0.0408,-0.0104 0.0722,-0.0185 10e-4,-3.6e-4 0.042,-0.004 0.075,-0.007 h 0.19929 2.071807 2.071796 2.071795 2.071803 2.071796 2.071803 2.071796 2.071803 2.071795 2.071805 2.071795 2.071803 2.071796 2.071795 2.071803 2.071796 2.071803 2.071799 2.0718 2.071795 2.0718 2.071799 2.071799 2.0718 2.071799 2.071799 2.0718 2.0718 2.071799 2.0718 2.071795 2.071799 2.071802 2.071797 2.071799 2.0718 2.071799 2.071799 2.0718 2.071797 2.0718 2.071799 2.071797 2.0717989 2.0717994 2.0717989 2.0717993 2.07179909 2.07179911 2.0717991 2.071799 2.0717991 2.0718011 2.071799 2.071799 2.0718 2.071797 2.0718 2.071799 2.071799 2.0718 2.071799 2.071797 2.071803 2.071799 2.071795 2.0718 2.071799 2.071799 2.0718 2.071799 2.071799 2.0718 2.071799 2.071799 2.0718 2.071795 2.0718 2.071799 2.071803 2.071796 2.071804 2.071795 2.071796 2.071803 2.071795 2.071804 2.071795 2.071803 2.071796 2.071803 2.071796 2.071803 2.071795 2.071794 2.071783 0.19929 l 0.042,0.004 0.075,0.007 0.0408,0.0104 0.0736,0.0189 0.039,0.0172 0.0484,0.0214 0.0205,0.009 0.001,4.8e-4 0.0359,0.0234 0.0644,0.0416 0.032,0.0293 0.0573,0.0529 0.0232,0.0289 0.004,0.005 0.0495,0.0612 9.9e-4,0.002 0.0209,0.0366 0.0389,0.0688 0.0161,0.0416 0.0238,0.0615 0.005,0.013 1.5e-4,3.9e-4 0.01,0.0436 0.0177,0.0786 0.003,0.0449 0.006,0.0801 v 0.005 0.011 0.55346 1.10692 2.21383 2.21383 2.21383 2.21383 2.21383 2.21384 2.21383 2.21382 2.21384 2.21383 2.21383 2.21383 0.55346 0.39239 l -0.003,0.0449 -0.006,0.0801 -0.008,0.0361 -0.002,0.007 -0.0177,0.0786 -0.0161,0.0416 -0.0285,0.0737 -4.5e-4,0.001 -0.0219,0.0384 -0.0203,0.0358 -0.0186,0.033 -0.0274,0.0341 -0.0487,0.0603 -7.6e-4,9.5e-4 -0.032,0.0293 -0.0573,0.0529 -0.0359,0.0234 -0.0644,0.0416 -0.003,0.001 -0.0188,0.008 -0.0173,0.008 -0.0696,0.0308 -3.7e-4,1.7e-4 -0.0408,0.0104 -0.0736,0.0189 -0.042,0.004 -0.075,0.007 h -0.005 -0.1944 -4.143582 -4.143598 -8.287199 -8.287197 -8.28719 -8.287197 -8.287198 -8.287198 -8.287193 -8.287198 -8.287195 -8.2871991 -8.28719661 -8.28719669 -8.2871946 -8.287195 -8.287199 -8.287193 -2.071799 -1.077379 v -1.74703 -2.21383 -2.68946 l -0.93761,-1.50241 m 140.365395,4.14877 0.895287,-0.95774 0.574601,-1.20528 0.199288,-1.33717 -0.131786,-0.88423 -0.0675,-0.45293 -0.574601,-1.20528 -0.895287,-0.95774 -1.128965,-0.614 -1.250363,-0.21295 -1.251375,0.21295 -1.127954,0.614 -0.503788,0.53832 -0.227622,-0.12431 -0.937766,-0.1589 -0.938785,0.1589 -0.845714,0.46049 -0.671717,0.71885 -0.430954,0.90369 -0.01763,0.11891 -0.131076,0.88423 0.148703,1.00315 0.430954,0.90369 0.671717,0.71885 0.845714,0.46049 0.938785,0.1589 0.937766,-0.1589 0.227622,-0.12431 0.503788,0.53832 0.07942,0.0432 0.995922,0.54212 0.0526,0.0286 1.251374,0.21295 1.250364,-0.21295 1.049462,-0.57075 0.0795,-0.0432 z"
     id="path7043"
     inkscape:connector-curvature="0"
     style="fill:none;stroke:#0000ff;stroke-width:0.20914435;stroke-miterlimit:4;stroke-dasharray:none" />
</svg>
